<svg width="600" height="600" xmlns="http://www.w3.org/2000/svg">
 <g>
  <title>Layer 1</title>
  <rect transform="rotate(45, 304.721, 689.482)" id="svg_1" height="693.05234" width="692.43717" y="342.95619" x="-41.49754" stroke="#000" fill="#33666C"/>
  <path id="svg_2" d="m311.90239,384.59043c-50.53039,0 -154.5,-86.53591 -154.5,-123c0,-36.46409 119.96961,-94 154.5,-94c34.53039,0 133.5,57.53591 133.5,94c0,36.46409 -82.96961,123 -133.5,123z" opacity="undefined" stroke-width="0" stroke="#000" fill="#00bfbf"/>
  <path id="svg_3" d="m304.59999,348.20004c-102.53592,-1 -125.00001,-67.08564 -116.00001,-141.5c9,-74.41437 51.46409,-136.5 115.00001,-136.5c63.53592,0 105.00001,55.08564 115.00001,136.5c10,81.41437 -11.46409,142.5 -114.00001,141.5z" opacity="undefined" stroke="#000" fill="#33666C"/>
 </g>

</svg>